<svg width="40" height="44" fill="none" xmlns="http://www.w3.org/2000/svg"><g id="send-message-button" fill="#0AD69C"><path id="Shape" d="M37.945 1.957L1.098 21.097c-1.516.788-1.454 1.941.136 2.565l4.705 1.842c1.587.622 3.994.285 5.343-.76l20.43-15.96c1.344-1.05 1.488-.894.321.345L15.88 26.259c-1.17 1.233-.822 2.745.77 3.36l.55.214a416.9 416.9 0 0 1 5.779 2.276l5.217 2.104a158.8 158.8 0 0 1 2.882 1.178c0 .01.01.038.018.04.007.003.382-1.33.83-2.966L39.882 3.5c.448-1.637-.421-2.33-1.937-1.544z"/><path id="Shape_2" d="M16.253 32.795l-3.356-1.616c-1.47-.71-2.176.123-1.566 1.853.001 0 3.116 8.836 3.029 9.147-.09.31 2.988-5.243 2.988-5.243.87-1.568.376-3.431-1.095-4.14z"/></g></svg>